<?xml version="1.0" standalone="no"?>
<!DOCTYPE svg PUBLIC "-//W3C//DTD SVG 20010904//EN"
 "http://www.w3.org/TR/2001/REC-SVG-20010904/DTD/svg10.dtd">
<svg version="1.0" xmlns="http://www.w3.org/2000/svg"
 width="172.000000pt" height="248.000000pt" viewBox="0 0 172.000000 248.000000"
 preserveAspectRatio="xMidYMid meet">

<g transform="translate(0.000000,248.000000) scale(0.100000,-0.100000)"
fill="#000000" stroke="none">
<path d="M0 1240 l0 -1239 860 0 860 -1 0 1239 -1 1240 -859 0 -859 0 -1
-1239z m733 1223 c-7 -2 -19 -2 -25 0 -7 3 -2 5 12 5 14 0 19 -2 13 -5z m315
0 c-10 -2 -26 -2 -35 0 -10 3 -2 5 17 5 19 0 27 -2 18 -5z m-371 -9 c-3 -3
-12 -4 -19 -1 -8 3 -5 6 6 6 11 1 17 -2 13 -5z m446 -1 c-7 -2 -19 -2 -25 0
-7 3 -2 5 12 5 14 0 19 -2 13 -5z m-486 -9 c-3 -3 -12 -4 -19 -1 -8 3 -5 6 6
6 11 1 17 -2 13 -5z m365 -19 c70 -8 151 -24 180 -35 168 -63 343 -212 410
-350 57 -118 79 -229 79 -396 -1 -171 -24 -300 -71 -396 -69 -142 -215 -290
-358 -362 -99 -50 -161 -61 -357 -60 -250 0 -368 27 -491 111 -77 54 -141 121
-197 208 -69 109 -83 141 -117 279 -30 121 -32 138 -27 250 11 248 87 401 280
562 131 110 260 168 433 193 86 12 96 12 236 -4z m286 -29 c37 -19 76 -41 87
-50 11 -9 -20 5 -70 31 -96 49 -102 53 -91 53 3 0 37 -15 74 -34z m-758 14
c-8 -5 -19 -10 -25 -10 -5 0 -3 5 5 10 8 5 20 10 25 10 6 0 3 -5 -5 -10z
m-100 -44 c0 -2 -12 -11 -27 -20 l-28 -17 24 20 c23 21 31 25 31 17z m-137
-111 c-45 -42 -103 -99 -129 -128 -26 -29 -37 -38 -26 -21 22 33 219 224 230
224 4 0 -30 -34 -75 -75z m1233 -37 c59 -63 143 -192 132 -203 -2 -2 -19 26
-37 63 -25 47 -62 94 -128 160 -51 52 -81 85 -65 74 15 -12 59 -54 98 -94z
m-1428 -193 c-12 -24 -23 -43 -26 -41 -4 5 36 86 43 86 3 0 -5 -20 -17 -45z
m1581 -65 c0 -10 -3 -8 -9 5 -12 27 -12 43 0 25 5 -8 9 -22 9 -30z m8 -42 c-3
-8 -6 -5 -6 6 -1 11 2 17 5 13 3 -3 4 -12 1 -19z m10 -40 c-3 -8 -6 -5 -6 6
-1 11 2 17 5 13 3 -3 4 -12 1 -19z m-1660 -10 c-3 -8 -6 -5 -6 6 -1 11 2 17 5
13 3 -3 4 -12 1 -19z m1670 -30 c-3 -8 -6 -5 -6 6 -1 11 2 17 5 13 3 -3 4 -12
1 -19z m-1680 -10 c-3 -8 -6 -5 -6 6 -1 11 2 17 5 13 3 -3 4 -12 1 -19z m-10
-65 c-3 -10 -5 -4 -5 12 0 17 2 24 5 18 2 -7 2 -21 0 -30z m0 -265 c-3 -7 -5
-2 -5 12 0 14 2 19 5 13 2 -7 2 -19 0 -25z m1690 -70 c-3 -7 -5 -2 -5 12 0 14
2 19 5 13 2 -7 2 -19 0 -25z m-1670 -20 c-3 -8 -6 -5 -6 6 -1 11 2 17 5 13 3
-3 4 -12 1 -19z m1660 -30 c-3 -8 -6 -5 -6 6 -1 11 2 17 5 13 3 -3 4 -12 1
-19z m-27 -95 c-11 -17 -11 -17 -6 0 3 10 6 24 7 30 0 9 2 9 5 0 3 -7 0 -20
-6 -30z m-1580 -38 c0 -5 -5 -3 -10 5 -5 8 -10 20 -10 25 0 6 5 3 10 -5 5 -8
10 -19 10 -25z m1550 -34 c-28 -56 -35 -52 -8 4 12 24 23 43 26 41 2 -2 -6
-22 -18 -45z m-1520 -21 c6 -11 8 -20 6 -20 -3 0 -10 9 -16 20 -6 11 -8 20 -6
20 3 0 10 -9 16 -20z m59 -94 c46 -70 121 -146 189 -191 49 -32 56 -45 11 -18
-53 31 -158 133 -198 192 -46 69 -53 81 -48 81 3 0 23 -29 46 -64z m1391 4
c-11 -16 -26 -33 -32 -36 -7 -4 1 9 16 29 34 44 46 50 16 7z m-40 -53 c0 -1
-24 -25 -52 -52 l-53 -50 50 53 c46 48 55 57 55 49z m-110 -101 c0 -2 -8 -10
-17 -17 -16 -13 -17 -12 -4 4 13 16 21 21 21 13z m-48 -38 c-6 -7 -25 -22 -44
-32 -39 -23 -32 -13 14 20 38 26 45 29 30 12z m-967 -98 c-4 -23 -9 -39 -11
-37 -3 2 -2 23 2 46 4 23 9 40 11 37 3 -3 2 -23 -2 -46z m875 -22 l-5 -73 -3
59 c-3 52 1 86 10 86 2 0 1 -33 -2 -72z m-765 36 c206 -63 521 -70 666 -14
l52 19 -7 -87 c-4 -48 -8 -137 -9 -199 -2 -110 -10 -141 -27 -113 -11 18 -23
99 -24 167 -2 57 -18 85 -37 66 -8 -8 -10 -41 -7 -95 5 -98 5 -98 -107 -143
-58 -24 -89 -30 -176 -33 -123 -5 -186 9 -262 58 l-49 31 7 109 c6 82 4 114
-5 125 -10 12 -16 13 -26 4 -10 -8 -14 -38 -14 -103 -1 -130 -19 -211 -39
-177 -15 24 -23 289 -10 347 7 30 15 54 18 54 3 0 29 -7 56 -16z m-128 -141
c-3 -10 -5 -2 -5 17 0 19 2 27 5 18 2 -10 2 -26 0 -35z m880 -15 c-3 -7 -5 -2
-5 12 0 14 2 19 5 13 2 -7 2 -19 0 -25z m-870 -140 c-2 -24 -4 -5 -4 42 0 47
2 66 4 43 2 -24 2 -62 0 -85z m860 -100 c-3 -7 -5 -2 -5 12 0 14 2 19 5 13 2
-7 2 -19 0 -25z m-824 -40 c9 -6 9 -8 0 -8 -14 0 -33 32 -32 52 0 7 5 2 10
-12 6 -13 15 -28 22 -32z m105 -57 l-2 -86 -3 88 c-2 48 -6 87 -9 87 -3 0 -14
-10 -25 -22 -19 -23 -19 -23 -2 9 29 52 43 26 41 -76z m582 85 c-14 -13 -27
-21 -30 -19 -4 4 40 42 50 43 2 0 -7 -11 -20 -24z m63 -45 c-4 -6 -43 30 -43
40 0 5 10 -2 23 -14 13 -12 22 -24 20 -26z m57 14 c-7 -8 -16 -15 -21 -15 -5
0 -1 8 9 18 20 22 31 19 12 -3z m-606 -152 c-5 -122 -4 -134 13 -139 61 -19
62 -38 1 -42 -37 -2 -49 1 -56 15 -11 20 -18 140 -14 250 l2 71 29 -11 30 -11
-5 -133z m412 139 c-3 -5 -6 -35 -7 -68 -1 -63 -16 -188 -25 -216 -6 -21 -71
-35 -86 -20 -8 8 -4 14 15 21 18 7 28 19 28 33 1 13 3 32 4 43 1 11 2 60 3
108 2 81 4 88 25 97 28 11 50 12 43 2z m-313 -29 c-7 -2 -19 -2 -25 0 -7 3 -2
5 12 5 14 0 19 -2 13 -5z m205 -80 l-2 -88 -3 82 c-3 67 -7 82 -21 86 -12 3
-11 5 6 6 21 1 22 -2 20 -86z m149 25 c-2 -13 -4 -5 -4 17 -1 22 1 32 4 23 2
-10 2 -28 0 -40z m-410 -135 c-2 -16 -4 -5 -4 22 0 28 2 40 4 28 2 -13 2 -35
0 -50z m400 30 c-3 -10 -5 -4 -5 12 0 17 2 24 5 18 2 -7 2 -21 0 -30z m-540
-50 c-3 -10 -5 -2 -5 17 0 19 2 27 5 18 2 -10 2 -26 0 -35z m400 5 c-3 -8 -6
-5 -6 6 -1 11 2 17 5 13 3 -3 4 -12 1 -19z m-212 -28 c26 -28 15 -31 -12 -3
-12 13 -19 23 -14 23 4 0 16 -9 26 -20z m178 2 c-10 -10 -20 -17 -22 -16 -6 5
20 34 30 34 5 0 1 -8 -8 -18z m164 -4 c-3 -8 -6 -5 -6 6 -1 11 2 17 5 13 3 -3
4 -12 1 -19z m-7 -38 c0 -17 -39 -50 -57 -49 -12 0 -8 4 9 10 15 6 30 19 33
30 7 20 15 26 15 9z m-491 -45 c16 -20 16 -20 -6 -1 -13 11 -23 26 -22 35 0
14 1 14 6 1 3 -8 13 -24 22 -35z m161 0 c-7 -8 -16 -15 -21 -15 -5 0 -1 8 9
18 20 22 31 19 12 -3z m195 -3 c-6 -7 -45 9 -45 18 0 4 11 3 24 -3 14 -7 23
-13 21 -15z"/>
<path d="M973 1965 c-77 -46 -110 -128 -88 -221 15 -66 43 -99 110 -130 93
-44 190 -29 253 40 90 98 63 265 -52 317 -63 29 -169 26 -223 -6z m212 -36
c16 -7 40 -30 53 -49 21 -30 23 -44 19 -97 -6 -75 -31 -114 -87 -137 -51 -20
-100 -20 -148 -1 -53 23 -80 53 -97 106 -22 77 7 147 77 183 39 20 137 18 183
-5z"/>
<path d="M1040 1899 c-63 -25 -94 -91 -71 -148 16 -38 80 -73 137 -73 79 0
121 47 111 125 -6 48 -39 84 -86 97 -43 12 -58 12 -91 -1z"/>
<path d="M310 1951 c-172 -53 -227 -248 -100 -354 79 -67 212 -62 291 10 88
80 98 176 28 274 -42 60 -145 92 -219 70z m127 -51 c45 -20 76 -61 93 -120 19
-69 -55 -169 -138 -186 -83 -17 -173 26 -202 96 -30 73 19 172 105 211 51 24
89 23 142 -1z"/>
<path d="M330 1874 c-84 -30 -122 -106 -89 -178 14 -31 65 -56 114 -56 119 0
167 132 77 213 -20 19 -76 30 -102 21z"/>
<path d="M513 1525 c-3 -9 -4 -18 -2 -20 2 -2 85 -5 184 -6 157 -3 180 -1 183
13 4 22 -37 28 -210 28 -125 0 -150 -2 -155 -15z"/>
</g>
</svg>
